G04 Layer: BottomLayer*
G04 EasyEDA v6.4.20.6, 2021-08-25T14:01:31+02:00*
G04 e866269f8e5e4e6dbd67b5624e2cb2fc,10*
G04 Gerber Generator version 0.2*
G04 Scale: 100 percent, Rotated: No, Reflected: No *
G04 Dimensions in millimeters *
G04 leading zeros omitted , absolute positions ,4 integer and 5 decimal *
%FSLAX45Y45*%
%MOMM*%

%ADD10C,0.2540*%
%ADD11C,1.6000*%
%ADD15C,0.3000*%
%ADD16R,1.5748X1.5748*%
%ADD17C,1.5748*%
%ADD18C,1.7000*%
%ADD19C,2.0000*%
%ADD20C,1.5240*%
%ADD22C,1.8000*%
%ADD23C,1.5999*%
%ADD24C,0.8000*%

%LPD*%
D24*
X-996998Y-1330004D02*
G01*
X-996950Y-1330002D01*
X-996950Y-1874578D01*
X-596138Y-2275390D01*
X-219999Y-2275392D01*
X-2326998Y-3540000D02*
G01*
X-1262390Y-2475392D01*
X-219999Y-2475392D01*
X-219999Y-2675392D02*
G01*
X-915390Y-2675392D01*
X-1115997Y-2875998D01*
X-219999Y-2275392D02*
G01*
X-219999Y-2475392D01*
X-2227071Y-339910D02*
G01*
X-2056384Y-510598D01*
X-961897Y-510598D01*
X-809497Y-662998D01*
X-809497Y-955098D01*
X-996950Y-1142550D01*
X-996950Y-1330002D01*
X-996998Y-1330004D01*
X-1626999Y-2089998D02*
G01*
X-1618899Y-2098098D01*
X-1330197Y-2098098D01*
X-1178303Y-2249992D01*
X-996998Y-2249992D01*
D15*
X-3666997Y-339999D02*
G01*
X-3920997Y-593999D01*
X-3920997Y-789998D01*
D10*
X-2326998Y-3540000D02*
G01*
X-2523997Y-3343000D01*
X-2523997Y-2923598D01*
X-3271598Y-2175997D01*
X-3811993Y-2175997D01*
X-4682997Y-3075998D02*
G01*
X-4682997Y-2288598D01*
X-3539997Y-1145598D01*
X-3539997Y-637598D01*
X-3412997Y-510598D01*
X-3412997Y-339910D01*
D15*
X-4174997Y-3075998D02*
G01*
X-3811993Y-2712994D01*
X-3811993Y-2625999D01*
X-4862004Y-2175997D02*
G01*
X-5000497Y-2314491D01*
X-5000497Y-2961698D01*
X-4936997Y-3025198D01*
X-4936997Y-3075998D01*
X-4862004Y-1725998D02*
G01*
X-4862004Y-2175997D01*
X-4860797Y-1247198D02*
G01*
X-4862068Y-1725988D01*
X-2650997Y-3075998D02*
G01*
X-3026999Y-3451999D01*
X-3026999Y-3540000D01*
X-3158997Y-3075998D02*
G01*
X-3226998Y-3143999D01*
X-3226998Y-3540000D01*
X-3412997Y-3075998D02*
G01*
X-3426998Y-3089998D01*
X-3426998Y-3540000D01*
X-3666997Y-3075998D02*
G01*
X-3626998Y-3115998D01*
X-3626998Y-3540000D01*
X-3920997Y-3075998D02*
G01*
X-3826997Y-3169998D01*
X-3826997Y-3540000D01*
X-4174997Y-3075998D02*
G01*
X-4026997Y-3223999D01*
X-4026997Y-3540000D01*
X-3952003Y-1170998D02*
G01*
X-3666997Y-885992D01*
X-3666997Y-789998D01*
X-2901993Y-1170998D02*
G01*
X-2602003Y-1170998D01*
D24*
X-2126998Y-3540000D02*
G01*
X-1462996Y-2875998D01*
X-1369997Y-2875998D01*
X-2426997Y-339999D02*
G01*
X-2141981Y-624898D01*
X-999997Y-624898D01*
X-949197Y-675698D01*
X-949197Y-916998D01*
X-949197Y-916998D02*
G01*
X-1368297Y-1336098D01*
X-1368297Y-1971098D01*
X-1487169Y-2089970D01*
X-1627123Y-2089970D01*
D15*
X-2602003Y-1170998D02*
G01*
X-1937003Y-1835998D01*
X-1626999Y-1835998D01*
D11*
G01*
X-2126894Y-3540056D03*
G01*
X-2326893Y-3540056D03*
D16*
G01*
X-1115999Y-2875998D03*
D17*
G01*
X-1369999Y-2875998D03*
D11*
G01*
X-3826992Y-3540005D03*
G01*
X-4026992Y-3540005D03*
G01*
X-3626993Y-3540005D03*
G01*
X-3426993Y-3540005D03*
G01*
X-3226993Y-3540005D03*
G01*
X-3026994Y-3540005D03*
G01*
X-2426995Y-340012D03*
G01*
X-2226995Y-340012D03*
D17*
G01*
X-3920997Y-340012D03*
G01*
X-3666997Y-340012D03*
D16*
G01*
X-3412997Y-340012D03*
D11*
G01*
X-4606797Y-1247198D03*
G01*
X-4860797Y-1247198D03*
D18*
G01*
X-319989Y-1675391D03*
G01*
X-319989Y-1225405D03*
D19*
G01*
X-573989Y-1090404D03*
G01*
X-573989Y-1810392D03*
D16*
G01*
X-1126997Y-789998D03*
D17*
G01*
X-1380997Y-789998D03*
G01*
X-1634997Y-789998D03*
G01*
X-1888997Y-789998D03*
G01*
X-2142997Y-789998D03*
G01*
X-2396997Y-789998D03*
G01*
X-2650997Y-789998D03*
G01*
X-2904997Y-789998D03*
G01*
X-3158997Y-789998D03*
G01*
X-3412997Y-789998D03*
G01*
X-3666997Y-789998D03*
G01*
X-3920997Y-789998D03*
G01*
X-4174997Y-789998D03*
G01*
X-4428997Y-789998D03*
G01*
X-4682997Y-789998D03*
G01*
X-4936997Y-789998D03*
D16*
G01*
X-2142997Y-3075998D03*
D17*
G01*
X-2396997Y-3075998D03*
G01*
X-2650997Y-3075998D03*
G01*
X-2904997Y-3075998D03*
G01*
X-3158997Y-3075998D03*
G01*
X-3412997Y-3075998D03*
G01*
X-3666997Y-3075998D03*
G01*
X-3920997Y-3075998D03*
G01*
X-4174997Y-3075998D03*
G01*
X-4428997Y-3075998D03*
G01*
X-4682997Y-3075998D03*
G01*
X-4936997Y-3075998D03*
D20*
G01*
X-4861991Y-1725988D03*
G01*
X-3811981Y-1725988D03*
G01*
X-4861991Y-2176000D03*
G01*
X-3811981Y-2176000D03*
G01*
X-1551990Y-1170998D03*
G01*
X-2602001Y-1170998D03*
G01*
X-3952011Y-1170998D03*
G01*
X-2902000Y-1170998D03*
G01*
X-3811981Y-2626012D03*
G01*
X-4861991Y-2626012D03*
G36*
X-1502031Y-1735922D02*
G01*
X-1502031Y-1936074D01*
X-1751967Y-1936074D01*
X-1751967Y-1735922D01*
G37*
D22*
G01*
X-997000Y-1330002D03*
G01*
X-997000Y-2249990D03*
D23*
X-219986Y-2675389D02*
G01*
X-219991Y-2675389D01*
X-219986Y-2275390D02*
G01*
X-219991Y-2275390D01*
X-219986Y-2475390D02*
G01*
X-219991Y-2475390D01*
D19*
X-269989Y-2060379D02*
G01*
X-169989Y-2060379D01*
X-269989Y-2890400D02*
G01*
X-169989Y-2890400D01*
X-1601995Y-2343995D02*
G01*
X-1651995Y-2343995D01*
X-1601995Y-2089995D02*
G01*
X-1651995Y-2089995D01*
M02*
