G04 Layer: TopSilkLayer*
G04 EasyEDA v6.4.20.6, 2021-08-25T14:01:31+02:00*
G04 e866269f8e5e4e6dbd67b5624e2cb2fc,10*
G04 Gerber Generator version 0.2*
G04 Scale: 100 percent, Rotated: No, Reflected: No *
G04 Dimensions in millimeters *
G04 leading zeros omitted , absolute positions ,4 integer and 5 decimal *
%FSLAX45Y45*%
%MOMM*%

%ADD10C,0.2540*%
%ADD15C,0.3000*%
%ADD25C,0.2032*%
%ADD26C,0.2030*%
%ADD27C,0.4000*%
%ADD28C,0.1520*%
%ADD29C,0.1800*%

%LPD*%
D28*
X-1055039Y-1917776D02*
G01*
X-946073Y-1917776D01*
X-1055039Y-1917776D02*
G01*
X-1055039Y-1881454D01*
X-1049959Y-1865706D01*
X-1039545Y-1855292D01*
X-1029131Y-1850212D01*
X-1013637Y-1844878D01*
X-987475Y-1844878D01*
X-971981Y-1850212D01*
X-961567Y-1855292D01*
X-951153Y-1865706D01*
X-946073Y-1881454D01*
X-946073Y-1917776D01*
X-1034465Y-1810588D02*
G01*
X-1039545Y-1800174D01*
X-1055039Y-1784680D01*
X-946073Y-1784680D01*
D15*
X-2908300Y-1487228D02*
G01*
X-2908300Y-1678236D01*
X-2908300Y-1487228D02*
G01*
X-2835655Y-1678236D01*
X-2762757Y-1487228D02*
G01*
X-2835655Y-1678236D01*
X-2762757Y-1487228D02*
G01*
X-2762757Y-1678236D01*
X-2648203Y-1487228D02*
G01*
X-2666492Y-1496372D01*
X-2684779Y-1514660D01*
X-2693669Y-1532694D01*
X-2702813Y-1560126D01*
X-2702813Y-1605338D01*
X-2693669Y-1632770D01*
X-2684779Y-1650804D01*
X-2666492Y-1669092D01*
X-2648203Y-1678236D01*
X-2611881Y-1678236D01*
X-2593847Y-1669092D01*
X-2575560Y-1650804D01*
X-2566415Y-1632770D01*
X-2557271Y-1605338D01*
X-2557271Y-1560126D01*
X-2566415Y-1532694D01*
X-2575560Y-1514660D01*
X-2593847Y-1496372D01*
X-2611881Y-1487228D01*
X-2648203Y-1487228D01*
X-2370073Y-1514660D02*
G01*
X-2388361Y-1496372D01*
X-2415539Y-1487228D01*
X-2451861Y-1487228D01*
X-2479293Y-1496372D01*
X-2497327Y-1514660D01*
X-2497327Y-1532694D01*
X-2488184Y-1550982D01*
X-2479293Y-1560126D01*
X-2461005Y-1569016D01*
X-2406395Y-1587304D01*
X-2388361Y-1596448D01*
X-2379218Y-1605338D01*
X-2370073Y-1623626D01*
X-2370073Y-1650804D01*
X-2388361Y-1669092D01*
X-2415539Y-1678236D01*
X-2451861Y-1678236D01*
X-2479293Y-1669092D01*
X-2497327Y-1650804D01*
X-2310129Y-1487228D02*
G01*
X-2310129Y-1678236D01*
X-2310129Y-1487228D02*
G01*
X-2192019Y-1487228D01*
X-2310129Y-1578160D02*
G01*
X-2237485Y-1578160D01*
X-2131821Y-1487228D02*
G01*
X-2131821Y-1678236D01*
X-2131821Y-1487228D02*
G01*
X-2013711Y-1487228D01*
X-2131821Y-1578160D02*
G01*
X-2059177Y-1578160D01*
X-2131821Y-1678236D02*
G01*
X-2013711Y-1678236D01*
X-1890013Y-1487228D02*
G01*
X-1890013Y-1678236D01*
X-1953768Y-1487228D02*
G01*
X-1826513Y-1487228D01*
D28*
X-2309621Y-1790250D02*
G01*
X-2314955Y-1779836D01*
X-2325369Y-1769422D01*
X-2335529Y-1764342D01*
X-2356357Y-1764342D01*
X-2366771Y-1769422D01*
X-2377185Y-1779836D01*
X-2382519Y-1790250D01*
X-2387600Y-1805744D01*
X-2387600Y-1831906D01*
X-2382519Y-1847400D01*
X-2377185Y-1857814D01*
X-2366771Y-1868228D01*
X-2356357Y-1873308D01*
X-2335529Y-1873308D01*
X-2325369Y-1868228D01*
X-2314955Y-1857814D01*
X-2309621Y-1847400D01*
X-2309621Y-1831906D01*
X-2335529Y-1831906D02*
G01*
X-2309621Y-1831906D01*
X-2233929Y-1764342D02*
G01*
X-2275331Y-1873308D01*
X-2233929Y-1764342D02*
G01*
X-2192273Y-1873308D01*
X-2259837Y-1836986D02*
G01*
X-2207768Y-1836986D01*
X-2121661Y-1764342D02*
G01*
X-2121661Y-1873308D01*
X-2157984Y-1764342D02*
G01*
X-2085339Y-1764342D01*
X-2051050Y-1764342D02*
G01*
X-2051050Y-1873308D01*
X-2051050Y-1764342D02*
G01*
X-1983485Y-1764342D01*
X-2051050Y-1816158D02*
G01*
X-2009393Y-1816158D01*
X-2051050Y-1873308D02*
G01*
X-1983485Y-1873308D01*
X-2349500Y-2030984D02*
G01*
X-2349500Y-2139950D01*
X-2349500Y-2030984D02*
G01*
X-2313177Y-2030984D01*
X-2297429Y-2036063D01*
X-2287269Y-2046478D01*
X-2281935Y-2056892D01*
X-2276855Y-2072639D01*
X-2276855Y-2098547D01*
X-2281935Y-2114042D01*
X-2287269Y-2124455D01*
X-2297429Y-2134870D01*
X-2313177Y-2139950D01*
X-2349500Y-2139950D01*
X-2242565Y-2030984D02*
G01*
X-2242565Y-2139950D01*
X-2242565Y-2030984D02*
G01*
X-2195829Y-2030984D01*
X-2180081Y-2036063D01*
X-2175002Y-2041397D01*
X-2169668Y-2051812D01*
X-2169668Y-2062226D01*
X-2175002Y-2072639D01*
X-2180081Y-2077720D01*
X-2195829Y-2082800D01*
X-2242565Y-2082800D01*
X-2205989Y-2082800D02*
G01*
X-2169668Y-2139950D01*
X-2093976Y-2030984D02*
G01*
X-2135377Y-2139950D01*
X-2093976Y-2030984D02*
G01*
X-2052319Y-2139950D01*
X-2119884Y-2103628D02*
G01*
X-2067813Y-2103628D01*
X-2018029Y-2030984D02*
G01*
X-2018029Y-2139950D01*
X-1983739Y-2030984D02*
G01*
X-1983739Y-2139950D01*
X-1983739Y-2030984D02*
G01*
X-1911095Y-2139950D01*
X-1911095Y-2030984D02*
G01*
X-1911095Y-2139950D01*
X-2454655Y-2300536D02*
G01*
X-2465069Y-2290122D01*
X-2480563Y-2285042D01*
X-2501392Y-2285042D01*
X-2516885Y-2290122D01*
X-2527300Y-2300536D01*
X-2527300Y-2310950D01*
X-2522219Y-2321364D01*
X-2516885Y-2326444D01*
X-2506471Y-2331778D01*
X-2475229Y-2342192D01*
X-2465069Y-2347272D01*
X-2459735Y-2352606D01*
X-2454655Y-2362766D01*
X-2454655Y-2378514D01*
X-2465069Y-2388928D01*
X-2480563Y-2394008D01*
X-2501392Y-2394008D01*
X-2516885Y-2388928D01*
X-2527300Y-2378514D01*
X-2389123Y-2285042D02*
G01*
X-2399537Y-2290122D01*
X-2409952Y-2300536D01*
X-2415031Y-2310950D01*
X-2420365Y-2326444D01*
X-2420365Y-2352606D01*
X-2415031Y-2368100D01*
X-2409952Y-2378514D01*
X-2399537Y-2388928D01*
X-2389123Y-2394008D01*
X-2368295Y-2394008D01*
X-2357881Y-2388928D01*
X-2347468Y-2378514D01*
X-2342387Y-2368100D01*
X-2337053Y-2352606D01*
X-2337053Y-2326444D01*
X-2342387Y-2310950D01*
X-2347468Y-2300536D01*
X-2357881Y-2290122D01*
X-2368295Y-2285042D01*
X-2389123Y-2285042D01*
X-2302763Y-2285042D02*
G01*
X-2302763Y-2362766D01*
X-2297684Y-2378514D01*
X-2287269Y-2388928D01*
X-2271776Y-2394008D01*
X-2261361Y-2394008D01*
X-2245613Y-2388928D01*
X-2235200Y-2378514D01*
X-2230119Y-2362766D01*
X-2230119Y-2285042D01*
X-2195829Y-2285042D02*
G01*
X-2195829Y-2394008D01*
X-2195829Y-2285042D02*
G01*
X-2149093Y-2285042D01*
X-2133600Y-2290122D01*
X-2128265Y-2295456D01*
X-2123185Y-2305616D01*
X-2123185Y-2316030D01*
X-2128265Y-2326444D01*
X-2133600Y-2331778D01*
X-2149093Y-2336858D01*
X-2195829Y-2336858D01*
X-2159507Y-2336858D02*
G01*
X-2123185Y-2394008D01*
X-2010918Y-2310950D02*
G01*
X-2015997Y-2300536D01*
X-2026411Y-2290122D01*
X-2036826Y-2285042D01*
X-2057653Y-2285042D01*
X-2068068Y-2290122D01*
X-2078481Y-2300536D01*
X-2083561Y-2310950D01*
X-2088895Y-2326444D01*
X-2088895Y-2352606D01*
X-2083561Y-2368100D01*
X-2078481Y-2378514D01*
X-2068068Y-2388928D01*
X-2057653Y-2394008D01*
X-2036826Y-2394008D01*
X-2026411Y-2388928D01*
X-2015997Y-2378514D01*
X-2010918Y-2368100D01*
X-1976627Y-2285042D02*
G01*
X-1976627Y-2394008D01*
X-1976627Y-2285042D02*
G01*
X-1909063Y-2285042D01*
X-1976627Y-2336858D02*
G01*
X-1934971Y-2336858D01*
X-1976627Y-2394008D02*
G01*
X-1909063Y-2394008D01*
X-1495297Y-3240082D02*
G01*
X-1495297Y-3349048D01*
X-1495297Y-3240082D02*
G01*
X-1448561Y-3240082D01*
X-1433068Y-3245162D01*
X-1427734Y-3250496D01*
X-1422653Y-3260910D01*
X-1422653Y-3271324D01*
X-1427734Y-3281738D01*
X-1433068Y-3286818D01*
X-1448561Y-3291898D01*
X-1495297Y-3291898D02*
G01*
X-1448561Y-3291898D01*
X-1433068Y-3297232D01*
X-1427734Y-3302312D01*
X-1422653Y-3312726D01*
X-1422653Y-3328474D01*
X-1427734Y-3338888D01*
X-1433068Y-3343968D01*
X-1448561Y-3349048D01*
X-1495297Y-3349048D01*
X-1346707Y-3240082D02*
G01*
X-1388363Y-3349048D01*
X-1346707Y-3240082D02*
G01*
X-1305052Y-3349048D01*
X-1372615Y-3312726D02*
G01*
X-1320800Y-3312726D01*
X-1234439Y-3240082D02*
G01*
X-1234439Y-3349048D01*
X-1270761Y-3240082D02*
G01*
X-1198118Y-3240082D01*
X-1005839Y-3265990D02*
G01*
X-1011173Y-3255576D01*
X-1021588Y-3245162D01*
X-1031747Y-3240082D01*
X-1052575Y-3240082D01*
X-1062989Y-3245162D01*
X-1073404Y-3255576D01*
X-1078738Y-3265990D01*
X-1083818Y-3281738D01*
X-1083818Y-3307646D01*
X-1078738Y-3323140D01*
X-1073404Y-3333554D01*
X-1062989Y-3343968D01*
X-1052575Y-3349048D01*
X-1031747Y-3349048D01*
X-1021588Y-3343968D01*
X-1011173Y-3333554D01*
X-1005839Y-3323140D01*
X-909320Y-3276404D02*
G01*
X-909320Y-3349048D01*
X-909320Y-3291898D02*
G01*
X-919734Y-3281738D01*
X-930147Y-3276404D01*
X-945641Y-3276404D01*
X-956056Y-3281738D01*
X-966470Y-3291898D01*
X-971550Y-3307646D01*
X-971550Y-3318060D01*
X-966470Y-3333554D01*
X-956056Y-3343968D01*
X-945641Y-3349048D01*
X-930147Y-3349048D01*
X-919734Y-3343968D01*
X-909320Y-3333554D01*
X-875029Y-3240082D02*
G01*
X-875029Y-3349048D01*
X-875029Y-3291898D02*
G01*
X-864615Y-3281738D01*
X-854202Y-3276404D01*
X-838707Y-3276404D01*
X-828293Y-3281738D01*
X-817879Y-3291898D01*
X-812545Y-3307646D01*
X-812545Y-3318060D01*
X-817879Y-3333554D01*
X-828293Y-3343968D01*
X-838707Y-3349048D01*
X-854202Y-3349048D01*
X-864615Y-3343968D01*
X-875029Y-3333554D01*
X-778256Y-3240082D02*
G01*
X-778256Y-3349048D01*
X-743965Y-3307646D02*
G01*
X-681736Y-3307646D01*
X-681736Y-3297232D01*
X-686815Y-3286818D01*
X-692150Y-3281738D01*
X-702563Y-3276404D01*
X-718057Y-3276404D01*
X-728472Y-3281738D01*
X-738886Y-3291898D01*
X-743965Y-3307646D01*
X-743965Y-3318060D01*
X-738886Y-3333554D01*
X-728472Y-3343968D01*
X-718057Y-3349048D01*
X-702563Y-3349048D01*
X-692150Y-3343968D01*
X-681736Y-3333554D01*
D29*
X-1070686Y-3041276D02*
G01*
X-1070686Y-3204852D01*
X-1152474Y-3123064D02*
G01*
X-988644Y-3123064D01*
X-1457197Y-3128830D02*
G01*
X-1293621Y-3128830D01*
D28*
X-689609Y-2922778D02*
G01*
X-681481Y-2939034D01*
X-664972Y-2955544D01*
X-648715Y-2963671D01*
X-624077Y-2971800D01*
X-583184Y-2971800D01*
X-558800Y-2963671D01*
X-542289Y-2955544D01*
X-526034Y-2939034D01*
X-517906Y-2922778D01*
X-517906Y-2890012D01*
X-526034Y-2873502D01*
X-542289Y-2857246D01*
X-558800Y-2849118D01*
X-583184Y-2840989D01*
X-624077Y-2840989D01*
X-648715Y-2849118D01*
X-664972Y-2857246D01*
X-681481Y-2873502D01*
X-689609Y-2890012D01*
X-689609Y-2922778D01*
X-689609Y-2786887D02*
G01*
X-517906Y-2786887D01*
X-689609Y-2786887D02*
G01*
X-517906Y-2672334D01*
X-689609Y-2672334D02*
G01*
X-517906Y-2672334D01*
X-689714Y-2325756D02*
G01*
X-681332Y-2342266D01*
X-665076Y-2358522D01*
X-648820Y-2366650D01*
X-624182Y-2374778D01*
X-583288Y-2374778D01*
X-558650Y-2366650D01*
X-542394Y-2358522D01*
X-525884Y-2342266D01*
X-517756Y-2325756D01*
X-517756Y-2292990D01*
X-525884Y-2276734D01*
X-542394Y-2260478D01*
X-558650Y-2252096D01*
X-583288Y-2243968D01*
X-624182Y-2243968D01*
X-648820Y-2252096D01*
X-665076Y-2260478D01*
X-681332Y-2276734D01*
X-689714Y-2292990D01*
X-689714Y-2325756D01*
X-689714Y-2189866D02*
G01*
X-517756Y-2189866D01*
X-689714Y-2189866D02*
G01*
X-689714Y-2083694D01*
X-607926Y-2189866D02*
G01*
X-607926Y-2124588D01*
X-689714Y-2029592D02*
G01*
X-517756Y-2029592D01*
X-689714Y-2029592D02*
G01*
X-689714Y-1923166D01*
X-607926Y-2029592D02*
G01*
X-607926Y-1964060D01*
D29*
X-2155697Y-3293930D02*
G01*
X-1992121Y-3293930D01*
X-2353386Y-3206376D02*
G01*
X-2353386Y-3369952D01*
X-2435174Y-3288164D02*
G01*
X-2271344Y-3288164D01*
D28*
X-2690113Y-3749098D02*
G01*
X-2581147Y-3749098D01*
X-2690113Y-3749098D02*
G01*
X-2690113Y-3702362D01*
X-2685034Y-3686868D01*
X-2679700Y-3681534D01*
X-2669285Y-3676454D01*
X-2658871Y-3676454D01*
X-2648457Y-3681534D01*
X-2643377Y-3686868D01*
X-2638297Y-3702362D01*
X-2638297Y-3749098D02*
G01*
X-2638297Y-3702362D01*
X-2632963Y-3686868D01*
X-2627884Y-3681534D01*
X-2617469Y-3676454D01*
X-2601721Y-3676454D01*
X-2591307Y-3681534D01*
X-2586227Y-3686868D01*
X-2581147Y-3702362D01*
X-2581147Y-3749098D01*
X-2690113Y-3600508D02*
G01*
X-2581147Y-3642164D01*
X-2690113Y-3600508D02*
G01*
X-2581147Y-3558852D01*
X-2617469Y-3626416D02*
G01*
X-2617469Y-3574600D01*
X-2690113Y-3488240D02*
G01*
X-2581147Y-3488240D01*
X-2690113Y-3524562D02*
G01*
X-2690113Y-3451918D01*
X-4391913Y-3799898D02*
G01*
X-4282947Y-3773990D01*
X-4391913Y-3747828D02*
G01*
X-4282947Y-3773990D01*
X-4391913Y-3747828D02*
G01*
X-4282947Y-3721920D01*
X-4391913Y-3696012D02*
G01*
X-4282947Y-3721920D01*
X-4329684Y-3661722D02*
G01*
X-4329684Y-3568250D01*
X-4391913Y-3533960D02*
G01*
X-4282947Y-3533960D01*
X-4282947Y-3533960D02*
G01*
X-4282947Y-3471476D01*
X-4391913Y-3437186D02*
G01*
X-4282947Y-3395784D01*
X-4391913Y-3354128D02*
G01*
X-4282947Y-3395784D01*
X-4391913Y-3319838D02*
G01*
X-4282947Y-3319838D01*
X-4282947Y-3319838D02*
G01*
X-4282947Y-3257608D01*
X-3133597Y-3260910D02*
G01*
X-3123184Y-3255576D01*
X-3107689Y-3240082D01*
X-3107689Y-3349048D01*
X-3042157Y-3240082D02*
G01*
X-3057652Y-3245162D01*
X-3068065Y-3260910D01*
X-3073400Y-3286818D01*
X-3073400Y-3302312D01*
X-3068065Y-3328474D01*
X-3057652Y-3343968D01*
X-3042157Y-3349048D01*
X-3031743Y-3349048D01*
X-3016250Y-3343968D01*
X-3005835Y-3328474D01*
X-3000502Y-3302312D01*
X-3000502Y-3286818D01*
X-3005835Y-3260910D01*
X-3016250Y-3245162D01*
X-3031743Y-3240082D01*
X-3042157Y-3240082D01*
X-2935223Y-3240082D02*
G01*
X-2950718Y-3245162D01*
X-2961131Y-3260910D01*
X-2966211Y-3286818D01*
X-2966211Y-3302312D01*
X-2961131Y-3328474D01*
X-2950718Y-3343968D01*
X-2935223Y-3349048D01*
X-2924810Y-3349048D01*
X-2909061Y-3343968D01*
X-2898647Y-3328474D01*
X-2893568Y-3302312D01*
X-2893568Y-3286818D01*
X-2898647Y-3260910D01*
X-2909061Y-3245162D01*
X-2924810Y-3240082D01*
X-2935223Y-3240082D01*
X-2765805Y-3240082D02*
G01*
X-2859277Y-3349048D01*
X-2833369Y-3240082D02*
G01*
X-2822955Y-3250496D01*
X-2822955Y-3260910D01*
X-2828035Y-3271324D01*
X-2838450Y-3276404D01*
X-2848863Y-3276404D01*
X-2859277Y-3265990D01*
X-2859277Y-3255576D01*
X-2854197Y-3245162D01*
X-2843784Y-3240082D01*
X-2833369Y-3240082D01*
X-2822955Y-3245162D01*
X-2807207Y-3250496D01*
X-2791713Y-3250496D01*
X-2776219Y-3245162D01*
X-2765805Y-3240082D01*
X-2786634Y-3312726D02*
G01*
X-2797047Y-3318060D01*
X-2802127Y-3328474D01*
X-2802127Y-3338888D01*
X-2791713Y-3349048D01*
X-2781300Y-3349048D01*
X-2770885Y-3343968D01*
X-2765805Y-3333554D01*
X-2765805Y-3323140D01*
X-2776219Y-3312726D01*
X-2786634Y-3312726D01*
X-4109719Y-3265990D02*
G01*
X-4115053Y-3255576D01*
X-4125468Y-3245162D01*
X-4135627Y-3240082D01*
X-4156455Y-3240082D01*
X-4166869Y-3245162D01*
X-4177284Y-3255576D01*
X-4182618Y-3265990D01*
X-4187697Y-3281738D01*
X-4187697Y-3307646D01*
X-4182618Y-3323140D01*
X-4177284Y-3333554D01*
X-4166869Y-3343968D01*
X-4156455Y-3349048D01*
X-4135627Y-3349048D01*
X-4125468Y-3343968D01*
X-4115053Y-3333554D01*
X-4109719Y-3323140D01*
X-4109719Y-3307646D01*
X-4135627Y-3307646D02*
G01*
X-4109719Y-3307646D01*
X-4075429Y-3240082D02*
G01*
X-4075429Y-3349048D01*
X-4075429Y-3240082D02*
G01*
X-4002785Y-3349048D01*
X-4002785Y-3240082D02*
G01*
X-4002785Y-3349048D01*
X-3968495Y-3240082D02*
G01*
X-3968495Y-3349048D01*
X-3968495Y-3240082D02*
G01*
X-3932173Y-3240082D01*
X-3916426Y-3245162D01*
X-3906011Y-3255576D01*
X-3900931Y-3265990D01*
X-3895597Y-3281738D01*
X-3895597Y-3307646D01*
X-3900931Y-3323140D01*
X-3906011Y-3333554D01*
X-3916426Y-3343968D01*
X-3932173Y-3349048D01*
X-3968495Y-3349048D01*
X-4147819Y-90990D02*
G01*
X-4153153Y-80576D01*
X-4163568Y-70162D01*
X-4173727Y-65082D01*
X-4194555Y-65082D01*
X-4204969Y-70162D01*
X-4215384Y-80576D01*
X-4220718Y-90990D01*
X-4225797Y-106738D01*
X-4225797Y-132646D01*
X-4220718Y-148140D01*
X-4215384Y-158554D01*
X-4204969Y-168968D01*
X-4194555Y-174048D01*
X-4173727Y-174048D01*
X-4163568Y-168968D01*
X-4153153Y-158554D01*
X-4147819Y-148140D01*
X-4147819Y-132646D01*
X-4173727Y-132646D02*
G01*
X-4147819Y-132646D01*
X-4113529Y-65082D02*
G01*
X-4113529Y-174048D01*
X-4113529Y-65082D02*
G01*
X-4040885Y-174048D01*
X-4040885Y-65082D02*
G01*
X-4040885Y-174048D01*
X-4006595Y-65082D02*
G01*
X-4006595Y-174048D01*
X-4006595Y-65082D02*
G01*
X-3970273Y-65082D01*
X-3954526Y-70162D01*
X-3944111Y-80576D01*
X-3939031Y-90990D01*
X-3933697Y-106738D01*
X-3933697Y-132646D01*
X-3939031Y-148140D01*
X-3944111Y-158554D01*
X-3954526Y-168968D01*
X-3970273Y-174048D01*
X-4006595Y-174048D01*
X-3806697Y-65082D02*
G01*
X-3765042Y-174048D01*
X-3723639Y-65082D02*
G01*
X-3765042Y-174048D01*
X-3611371Y-90990D02*
G01*
X-3616452Y-80576D01*
X-3626865Y-70162D01*
X-3637279Y-65082D01*
X-3658107Y-65082D01*
X-3668521Y-70162D01*
X-3678935Y-80576D01*
X-3684015Y-90990D01*
X-3689350Y-106738D01*
X-3689350Y-132646D01*
X-3684015Y-148140D01*
X-3678935Y-158554D01*
X-3668521Y-168968D01*
X-3658107Y-174048D01*
X-3637279Y-174048D01*
X-3626865Y-168968D01*
X-3616452Y-158554D01*
X-3611371Y-148140D01*
X-3499103Y-90990D02*
G01*
X-3504437Y-80576D01*
X-3514597Y-70162D01*
X-3525011Y-65082D01*
X-3545839Y-65082D01*
X-3556253Y-70162D01*
X-3566668Y-80576D01*
X-3571747Y-90990D01*
X-3577081Y-106738D01*
X-3577081Y-132646D01*
X-3571747Y-148140D01*
X-3566668Y-158554D01*
X-3556253Y-168968D01*
X-3545839Y-174048D01*
X-3525011Y-174048D01*
X-3514597Y-168968D01*
X-3504437Y-158554D01*
X-3499103Y-148140D01*
X-3302253Y-80576D02*
G01*
X-3312668Y-70162D01*
X-3328161Y-65082D01*
X-3348989Y-65082D01*
X-3364484Y-70162D01*
X-3374897Y-80576D01*
X-3374897Y-90990D01*
X-3369818Y-101404D01*
X-3364484Y-106738D01*
X-3354069Y-111818D01*
X-3322827Y-122232D01*
X-3312668Y-127312D01*
X-3307334Y-132646D01*
X-3302253Y-143060D01*
X-3302253Y-158554D01*
X-3312668Y-168968D01*
X-3328161Y-174048D01*
X-3348989Y-174048D01*
X-3364484Y-168968D01*
X-3374897Y-158554D01*
X-3267963Y-65082D02*
G01*
X-3267963Y-174048D01*
X-3155695Y-90990D02*
G01*
X-3160776Y-80576D01*
X-3171189Y-70162D01*
X-3181603Y-65082D01*
X-3202431Y-65082D01*
X-3212845Y-70162D01*
X-3223260Y-80576D01*
X-3228339Y-90990D01*
X-3233673Y-106738D01*
X-3233673Y-132646D01*
X-3228339Y-148140D01*
X-3223260Y-158554D01*
X-3212845Y-168968D01*
X-3202431Y-174048D01*
X-3181603Y-174048D01*
X-3171189Y-168968D01*
X-3160776Y-158554D01*
X-3155695Y-148140D01*
X-3155695Y-132646D01*
X-3181603Y-132646D02*
G01*
X-3155695Y-132646D01*
X-3975353Y-525076D02*
G01*
X-3985768Y-514662D01*
X-4001261Y-509582D01*
X-4022089Y-509582D01*
X-4037584Y-514662D01*
X-4047997Y-525076D01*
X-4047997Y-535490D01*
X-4042918Y-545904D01*
X-4037584Y-551238D01*
X-4027169Y-556318D01*
X-3995927Y-566732D01*
X-3985768Y-571812D01*
X-3980434Y-577146D01*
X-3975353Y-587560D01*
X-3975353Y-603054D01*
X-3985768Y-613468D01*
X-4001261Y-618548D01*
X-4022089Y-618548D01*
X-4037584Y-613468D01*
X-4047997Y-603054D01*
X-3914902Y-545904D02*
G01*
X-3925315Y-551238D01*
X-3935729Y-561398D01*
X-3941063Y-577146D01*
X-3941063Y-587560D01*
X-3935729Y-603054D01*
X-3925315Y-613468D01*
X-3914902Y-618548D01*
X-3899407Y-618548D01*
X-3888993Y-613468D01*
X-3878579Y-603054D01*
X-3873500Y-587560D01*
X-3873500Y-577146D01*
X-3878579Y-561398D01*
X-3888993Y-551238D01*
X-3899407Y-545904D01*
X-3914902Y-545904D01*
X-3839210Y-509582D02*
G01*
X-3833876Y-514662D01*
X-3828795Y-509582D01*
X-3833876Y-504248D01*
X-3839210Y-509582D01*
X-3833876Y-545904D02*
G01*
X-3833876Y-618548D01*
X-3794505Y-509582D02*
G01*
X-3794505Y-618548D01*
X-3687318Y-525076D02*
G01*
X-3697731Y-514662D01*
X-3713479Y-509582D01*
X-3734307Y-509582D01*
X-3749802Y-514662D01*
X-3760215Y-525076D01*
X-3760215Y-535490D01*
X-3754881Y-545904D01*
X-3749802Y-551238D01*
X-3739387Y-556318D01*
X-3708145Y-566732D01*
X-3697731Y-571812D01*
X-3692652Y-577146D01*
X-3687318Y-587560D01*
X-3687318Y-603054D01*
X-3697731Y-613468D01*
X-3713479Y-618548D01*
X-3734307Y-618548D01*
X-3749802Y-613468D01*
X-3760215Y-603054D01*
X-3653027Y-577146D02*
G01*
X-3590797Y-577146D01*
X-3590797Y-566732D01*
X-3595877Y-556318D01*
X-3601211Y-551238D01*
X-3611626Y-545904D01*
X-3627119Y-545904D01*
X-3637534Y-551238D01*
X-3647947Y-561398D01*
X-3653027Y-577146D01*
X-3653027Y-587560D01*
X-3647947Y-603054D01*
X-3637534Y-613468D01*
X-3627119Y-618548D01*
X-3611626Y-618548D01*
X-3601211Y-613468D01*
X-3590797Y-603054D01*
X-3556507Y-545904D02*
G01*
X-3556507Y-618548D01*
X-3556507Y-566732D02*
G01*
X-3541013Y-551238D01*
X-3530600Y-545904D01*
X-3514852Y-545904D01*
X-3504437Y-551238D01*
X-3499357Y-566732D01*
X-3499357Y-618548D01*
X-3407918Y-561398D02*
G01*
X-3412997Y-551238D01*
X-3428745Y-545904D01*
X-3444239Y-545904D01*
X-3459987Y-551238D01*
X-3465068Y-561398D01*
X-3459987Y-571812D01*
X-3449573Y-577146D01*
X-3423411Y-582226D01*
X-3412997Y-587560D01*
X-3407918Y-597974D01*
X-3407918Y-603054D01*
X-3412997Y-613468D01*
X-3428745Y-618548D01*
X-3444239Y-618548D01*
X-3459987Y-613468D01*
X-3465068Y-603054D01*
X-3095497Y-433382D02*
G01*
X-3095497Y-542348D01*
X-3095497Y-433382D02*
G01*
X-3048761Y-433382D01*
X-3033268Y-438462D01*
X-3027934Y-443796D01*
X-3022853Y-454210D01*
X-3022853Y-469704D01*
X-3027934Y-480118D01*
X-3033268Y-485198D01*
X-3048761Y-490532D01*
X-3095497Y-490532D01*
X-2988563Y-469704D02*
G01*
X-2988563Y-521774D01*
X-2983229Y-537268D01*
X-2972815Y-542348D01*
X-2957321Y-542348D01*
X-2946907Y-537268D01*
X-2931413Y-521774D01*
X-2931413Y-469704D02*
G01*
X-2931413Y-542348D01*
X-2897123Y-469704D02*
G01*
X-2897123Y-542348D01*
X-2897123Y-490532D02*
G01*
X-2881376Y-475038D01*
X-2870961Y-469704D01*
X-2855468Y-469704D01*
X-2845053Y-475038D01*
X-2839973Y-490532D01*
X-2839973Y-542348D01*
X-2839973Y-490532D02*
G01*
X-2824226Y-475038D01*
X-2813811Y-469704D01*
X-2798318Y-469704D01*
X-2787903Y-475038D01*
X-2782823Y-490532D01*
X-2782823Y-542348D01*
X-2748534Y-469704D02*
G01*
X-2748534Y-578924D01*
X-2748534Y-485198D02*
G01*
X-2738119Y-475038D01*
X-2727705Y-469704D01*
X-2711957Y-469704D01*
X-2701797Y-475038D01*
X-2691384Y-485198D01*
X-2686050Y-500946D01*
X-2686050Y-511360D01*
X-2691384Y-526854D01*
X-2701797Y-537268D01*
X-2711957Y-542348D01*
X-2727705Y-542348D01*
X-2738119Y-537268D01*
X-2748534Y-526854D01*
D29*
X-1908886Y-259976D02*
G01*
X-1908886Y-423552D01*
X-1990674Y-341764D02*
G01*
X-1826844Y-341764D01*
X-2828797Y-334830D02*
G01*
X-2665221Y-334830D01*
D28*
X-673013Y-1395976D02*
G01*
X-673013Y-1504942D01*
X-673013Y-1395976D02*
G01*
X-626277Y-1395976D01*
X-610783Y-1401056D01*
X-605449Y-1406390D01*
X-600369Y-1416804D01*
X-600369Y-1427218D01*
X-605449Y-1437632D01*
X-610783Y-1442712D01*
X-626277Y-1447792D01*
X-673013Y-1447792D02*
G01*
X-626277Y-1447792D01*
X-610783Y-1453126D01*
X-605449Y-1458206D01*
X-600369Y-1468620D01*
X-600369Y-1484368D01*
X-605449Y-1494782D01*
X-610783Y-1499862D01*
X-626277Y-1504942D01*
X-673013Y-1504942D01*
X-566079Y-1432298D02*
G01*
X-566079Y-1484368D01*
X-560999Y-1499862D01*
X-550585Y-1504942D01*
X-534837Y-1504942D01*
X-524423Y-1499862D01*
X-508929Y-1484368D01*
X-508929Y-1432298D02*
G01*
X-508929Y-1504942D01*
X-459145Y-1395976D02*
G01*
X-459145Y-1484368D01*
X-453811Y-1499862D01*
X-443397Y-1504942D01*
X-432983Y-1504942D01*
X-474639Y-1432298D02*
G01*
X-438317Y-1432298D01*
X-383199Y-1395976D02*
G01*
X-383199Y-1484368D01*
X-378119Y-1499862D01*
X-367705Y-1504942D01*
X-357291Y-1504942D01*
X-398693Y-1432298D02*
G01*
X-362371Y-1432298D01*
X-296839Y-1432298D02*
G01*
X-307253Y-1437632D01*
X-317667Y-1447792D01*
X-323001Y-1463540D01*
X-323001Y-1473954D01*
X-317667Y-1489448D01*
X-307253Y-1499862D01*
X-296839Y-1504942D01*
X-281345Y-1504942D01*
X-270931Y-1499862D01*
X-260517Y-1489448D01*
X-255437Y-1473954D01*
X-255437Y-1463540D01*
X-260517Y-1447792D01*
X-270931Y-1437632D01*
X-281345Y-1432298D01*
X-296839Y-1432298D01*
X-221147Y-1432298D02*
G01*
X-221147Y-1504942D01*
X-221147Y-1453126D02*
G01*
X-205399Y-1437632D01*
X-195239Y-1432298D01*
X-179491Y-1432298D01*
X-169077Y-1437632D01*
X-163997Y-1453126D01*
X-163997Y-1504942D01*
X-4922519Y-1424490D02*
G01*
X-4927853Y-1414076D01*
X-4938268Y-1403662D01*
X-4948427Y-1398582D01*
X-4969255Y-1398582D01*
X-4979669Y-1403662D01*
X-4990084Y-1414076D01*
X-4995418Y-1424490D01*
X-5000497Y-1440238D01*
X-5000497Y-1466146D01*
X-4995418Y-1481640D01*
X-4990084Y-1492054D01*
X-4979669Y-1502468D01*
X-4969255Y-1507548D01*
X-4948427Y-1507548D01*
X-4938268Y-1502468D01*
X-4927853Y-1492054D01*
X-4922519Y-1481640D01*
X-4888229Y-1419410D02*
G01*
X-4877815Y-1414076D01*
X-4862321Y-1398582D01*
X-4862321Y-1507548D01*
X-4796789Y-1398582D02*
G01*
X-4812537Y-1403662D01*
X-4822697Y-1419410D01*
X-4828031Y-1445318D01*
X-4828031Y-1460812D01*
X-4822697Y-1486974D01*
X-4812537Y-1502468D01*
X-4796789Y-1507548D01*
X-4786376Y-1507548D01*
X-4770881Y-1502468D01*
X-4760468Y-1486974D01*
X-4755387Y-1460812D01*
X-4755387Y-1445318D01*
X-4760468Y-1419410D01*
X-4770881Y-1403662D01*
X-4786376Y-1398582D01*
X-4796789Y-1398582D01*
X-4689855Y-1398582D02*
G01*
X-4705350Y-1403662D01*
X-4715763Y-1419410D01*
X-4721097Y-1445318D01*
X-4721097Y-1460812D01*
X-4715763Y-1486974D01*
X-4705350Y-1502468D01*
X-4689855Y-1507548D01*
X-4679442Y-1507548D01*
X-4663947Y-1502468D01*
X-4653534Y-1486974D01*
X-4648200Y-1460812D01*
X-4648200Y-1445318D01*
X-4653534Y-1419410D01*
X-4663947Y-1403662D01*
X-4679442Y-1398582D01*
X-4689855Y-1398582D01*
X-4613910Y-1434904D02*
G01*
X-4613910Y-1507548D01*
X-4613910Y-1455732D02*
G01*
X-4598415Y-1440238D01*
X-4588002Y-1434904D01*
X-4572507Y-1434904D01*
X-4562093Y-1440238D01*
X-4556760Y-1455732D01*
X-4556760Y-1507548D01*
X-4522469Y-1398582D02*
G01*
X-4522469Y-1507548D01*
X-4522469Y-1398582D02*
G01*
X-4454905Y-1398582D01*
X-4522469Y-1450398D02*
G01*
X-4481068Y-1450398D01*
X-4555997Y-2566982D02*
G01*
X-4555997Y-2675948D01*
X-4555997Y-2566982D02*
G01*
X-4509261Y-2566982D01*
X-4493768Y-2572062D01*
X-4488434Y-2577396D01*
X-4483353Y-2587810D01*
X-4483353Y-2598224D01*
X-4488434Y-2608638D01*
X-4493768Y-2613718D01*
X-4509261Y-2618798D01*
X-4555997Y-2618798D01*
X-4519676Y-2618798D02*
G01*
X-4483353Y-2675948D01*
X-4449063Y-2587810D02*
G01*
X-4438650Y-2582476D01*
X-4422902Y-2566982D01*
X-4422902Y-2675948D01*
X-4357623Y-2566982D02*
G01*
X-4373118Y-2572062D01*
X-4383531Y-2587810D01*
X-4388611Y-2613718D01*
X-4388611Y-2629212D01*
X-4383531Y-2655374D01*
X-4373118Y-2670868D01*
X-4357623Y-2675948D01*
X-4347210Y-2675948D01*
X-4331461Y-2670868D01*
X-4321047Y-2655374D01*
X-4315968Y-2629212D01*
X-4315968Y-2613718D01*
X-4321047Y-2587810D01*
X-4331461Y-2572062D01*
X-4347210Y-2566982D01*
X-4357623Y-2566982D01*
X-4250435Y-2566982D02*
G01*
X-4266184Y-2572062D01*
X-4276597Y-2587810D01*
X-4281677Y-2613718D01*
X-4281677Y-2629212D01*
X-4276597Y-2655374D01*
X-4266184Y-2670868D01*
X-4250435Y-2675948D01*
X-4240021Y-2675948D01*
X-4224527Y-2670868D01*
X-4214113Y-2655374D01*
X-4209034Y-2629212D01*
X-4209034Y-2613718D01*
X-4214113Y-2587810D01*
X-4224527Y-2572062D01*
X-4240021Y-2566982D01*
X-4250435Y-2566982D01*
X-4174743Y-2566982D02*
G01*
X-4174743Y-2675948D01*
X-4122673Y-2603304D02*
G01*
X-4174743Y-2655374D01*
X-4153915Y-2634546D02*
G01*
X-4117593Y-2675948D01*
X-4543297Y-1677982D02*
G01*
X-4543297Y-1786948D01*
X-4543297Y-1677982D02*
G01*
X-4496561Y-1677982D01*
X-4481068Y-1683062D01*
X-4475734Y-1688396D01*
X-4470653Y-1698810D01*
X-4470653Y-1709224D01*
X-4475734Y-1719638D01*
X-4481068Y-1724718D01*
X-4496561Y-1729798D01*
X-4543297Y-1729798D01*
X-4506976Y-1729798D02*
G01*
X-4470653Y-1786948D01*
X-4436363Y-1698810D02*
G01*
X-4425950Y-1693476D01*
X-4410202Y-1677982D01*
X-4410202Y-1786948D01*
X-4344923Y-1677982D02*
G01*
X-4360418Y-1683062D01*
X-4370831Y-1698810D01*
X-4375911Y-1724718D01*
X-4375911Y-1740212D01*
X-4370831Y-1766374D01*
X-4360418Y-1781868D01*
X-4344923Y-1786948D01*
X-4334510Y-1786948D01*
X-4318761Y-1781868D01*
X-4308347Y-1766374D01*
X-4303268Y-1740212D01*
X-4303268Y-1724718D01*
X-4308347Y-1698810D01*
X-4318761Y-1683062D01*
X-4334510Y-1677982D01*
X-4344923Y-1677982D01*
X-4237735Y-1677982D02*
G01*
X-4253484Y-1683062D01*
X-4263897Y-1698810D01*
X-4268977Y-1724718D01*
X-4268977Y-1740212D01*
X-4263897Y-1766374D01*
X-4253484Y-1781868D01*
X-4237735Y-1786948D01*
X-4227321Y-1786948D01*
X-4211827Y-1781868D01*
X-4201413Y-1766374D01*
X-4196334Y-1740212D01*
X-4196334Y-1724718D01*
X-4201413Y-1698810D01*
X-4211827Y-1683062D01*
X-4227321Y-1677982D01*
X-4237735Y-1677982D01*
X-4162043Y-1677982D02*
G01*
X-4162043Y-1786948D01*
X-4109973Y-1714304D02*
G01*
X-4162043Y-1766374D01*
X-4141215Y-1745546D02*
G01*
X-4104893Y-1786948D01*
X-2308097Y-1119182D02*
G01*
X-2308097Y-1228148D01*
X-2308097Y-1119182D02*
G01*
X-2261361Y-1119182D01*
X-2245868Y-1124262D01*
X-2240534Y-1129596D01*
X-2235453Y-1140010D01*
X-2235453Y-1150424D01*
X-2240534Y-1160838D01*
X-2245868Y-1165918D01*
X-2261361Y-1170998D01*
X-2308097Y-1170998D01*
X-2271776Y-1170998D02*
G01*
X-2235453Y-1228148D01*
X-2201163Y-1140010D02*
G01*
X-2190750Y-1134676D01*
X-2175002Y-1119182D01*
X-2175002Y-1228148D01*
X-2109723Y-1119182D02*
G01*
X-2125218Y-1124262D01*
X-2135631Y-1140010D01*
X-2140711Y-1165918D01*
X-2140711Y-1181412D01*
X-2135631Y-1207574D01*
X-2125218Y-1223068D01*
X-2109723Y-1228148D01*
X-2099310Y-1228148D01*
X-2083561Y-1223068D01*
X-2073147Y-1207574D01*
X-2068068Y-1181412D01*
X-2068068Y-1165918D01*
X-2073147Y-1140010D01*
X-2083561Y-1124262D01*
X-2099310Y-1119182D01*
X-2109723Y-1119182D01*
X-2002535Y-1119182D02*
G01*
X-2018284Y-1124262D01*
X-2028697Y-1140010D01*
X-2033777Y-1165918D01*
X-2033777Y-1181412D01*
X-2028697Y-1207574D01*
X-2018284Y-1223068D01*
X-2002535Y-1228148D01*
X-1992121Y-1228148D01*
X-1976627Y-1223068D01*
X-1966213Y-1207574D01*
X-1961134Y-1181412D01*
X-1961134Y-1165918D01*
X-1966213Y-1140010D01*
X-1976627Y-1124262D01*
X-1992121Y-1119182D01*
X-2002535Y-1119182D01*
X-1926843Y-1119182D02*
G01*
X-1926843Y-1228148D01*
X-1874773Y-1155504D02*
G01*
X-1926843Y-1207574D01*
X-1906015Y-1186746D02*
G01*
X-1869693Y-1228148D01*
X-3628897Y-1119182D02*
G01*
X-3628897Y-1228148D01*
X-3628897Y-1119182D02*
G01*
X-3582161Y-1119182D01*
X-3566668Y-1124262D01*
X-3561334Y-1129596D01*
X-3556253Y-1140010D01*
X-3556253Y-1150424D01*
X-3561334Y-1160838D01*
X-3566668Y-1165918D01*
X-3582161Y-1170998D01*
X-3628897Y-1170998D01*
X-3592576Y-1170998D02*
G01*
X-3556253Y-1228148D01*
X-3516629Y-1145090D02*
G01*
X-3516629Y-1140010D01*
X-3511550Y-1129596D01*
X-3506215Y-1124262D01*
X-3495802Y-1119182D01*
X-3475227Y-1119182D01*
X-3464813Y-1124262D01*
X-3459479Y-1129596D01*
X-3454400Y-1140010D01*
X-3454400Y-1150424D01*
X-3459479Y-1160838D01*
X-3469893Y-1176332D01*
X-3521963Y-1228148D01*
X-3449065Y-1228148D01*
X-3342131Y-1119182D02*
G01*
X-3393947Y-1228148D01*
X-3414776Y-1119182D02*
G01*
X-3342131Y-1119182D01*
X-3276600Y-1119182D02*
G01*
X-3292347Y-1124262D01*
X-3302507Y-1140010D01*
X-3307842Y-1165918D01*
X-3307842Y-1181412D01*
X-3302507Y-1207574D01*
X-3292347Y-1223068D01*
X-3276600Y-1228148D01*
X-3266185Y-1228148D01*
X-3250692Y-1223068D01*
X-3240277Y-1207574D01*
X-3235197Y-1181412D01*
X-3235197Y-1165918D01*
X-3240277Y-1140010D01*
X-3250692Y-1124262D01*
X-3266185Y-1119182D01*
X-3276600Y-1119182D01*
X-4517897Y-2122482D02*
G01*
X-4517897Y-2231448D01*
X-4517897Y-2122482D02*
G01*
X-4471161Y-2122482D01*
X-4455668Y-2127562D01*
X-4450334Y-2132896D01*
X-4445253Y-2143310D01*
X-4445253Y-2153724D01*
X-4450334Y-2164138D01*
X-4455668Y-2169218D01*
X-4471161Y-2174298D01*
X-4517897Y-2174298D01*
X-4481576Y-2174298D02*
G01*
X-4445253Y-2231448D01*
X-4400550Y-2122482D02*
G01*
X-4343400Y-2122482D01*
X-4374387Y-2164138D01*
X-4358893Y-2164138D01*
X-4348479Y-2169218D01*
X-4343400Y-2174298D01*
X-4338065Y-2190046D01*
X-4338065Y-2200460D01*
X-4343400Y-2215954D01*
X-4353813Y-2226368D01*
X-4369307Y-2231448D01*
X-4384802Y-2231448D01*
X-4400550Y-2226368D01*
X-4405629Y-2221288D01*
X-4410963Y-2210874D01*
X-4293361Y-2122482D02*
G01*
X-4236211Y-2122482D01*
X-4267453Y-2164138D01*
X-4251960Y-2164138D01*
X-4241545Y-2169218D01*
X-4236211Y-2174298D01*
X-4231131Y-2190046D01*
X-4231131Y-2200460D01*
X-4236211Y-2215954D01*
X-4246626Y-2226368D01*
X-4262373Y-2231448D01*
X-4277868Y-2231448D01*
X-4293361Y-2226368D01*
X-4298695Y-2221288D01*
X-4303776Y-2210874D01*
X-4196842Y-2122482D02*
G01*
X-4196842Y-2231448D01*
X-4144771Y-2158804D02*
G01*
X-4196842Y-2210874D01*
X-4176013Y-2190046D02*
G01*
X-4139692Y-2231448D01*
D10*
X-1926894Y-3820066D02*
G01*
X-2526893Y-3820066D01*
X-2526893Y-3370054D01*
X-1926894Y-3370054D01*
X-1926894Y-3820066D01*
D25*
X-1496997Y-3002998D02*
G01*
X-1496997Y-2751538D01*
X-988997Y-2751538D01*
X-988997Y-3002998D01*
X-1496997Y-3002998D01*
D10*
X-2826999Y-3820010D02*
G01*
X-4226996Y-3820010D01*
X-4226996Y-3369998D01*
X-2826999Y-3369998D01*
X-2826999Y-3820010D01*
X-439999Y-2035393D02*
G01*
X-439999Y-2915391D01*
X0Y-2035393D02*
G01*
X0Y-2915391D01*
X-439999Y-2915391D02*
G01*
X-391474Y-2915391D01*
X-48524Y-2915391D02*
G01*
X0Y-2915391D01*
X-439999Y-2035393D02*
G01*
X-391474Y-2035393D01*
X-48524Y-2035393D02*
G01*
X0Y-2035393D01*
X0Y-2729646D02*
G01*
X499999Y-2729646D01*
X499999Y-2729646D02*
G01*
X499999Y-2529646D01*
X499999Y-2529646D02*
G01*
X18572Y-2529646D01*
X0Y-2529403D01*
X-2626997Y-59989D02*
G01*
X-2026998Y-59989D01*
X-2026998Y-510001D01*
X-2626997Y-510001D01*
X-2626997Y-59989D01*
D25*
X-3476497Y-466999D02*
G01*
X-3285997Y-466999D01*
X-3285997Y-212999D01*
X-4047997Y-212999D01*
X-4047997Y-466999D01*
D26*
X-4047997Y-466999D02*
G01*
X-3476497Y-466999D01*
D10*
X-5033794Y-1547197D02*
G01*
X-4433801Y-1547197D01*
X-5033794Y-947199D02*
G01*
X-4433801Y-947199D01*
X-5033794Y-947199D02*
G01*
X-5033794Y-1547197D01*
X-4433801Y-947199D02*
G01*
X-4433801Y-1547197D01*
X-723999Y-1085397D02*
G01*
X-723999Y-1815398D01*
X-95001Y-1815398D02*
G01*
X-95001Y-1085397D01*
X86400Y-1622597D02*
G01*
X86400Y-1278199D01*
X-723999Y-1815398D02*
G01*
X-696066Y-1815398D01*
X-451932Y-1815398D02*
G01*
X-95001Y-1815398D01*
X-723999Y-1085397D02*
G01*
X-696066Y-1085397D01*
X-451932Y-1085397D02*
G01*
X-95001Y-1085397D01*
X86400Y-1622597D02*
G01*
X-95001Y-1622597D01*
X86400Y-1278199D02*
G01*
X-95001Y-1278199D01*
D25*
X-5063997Y-916998D02*
G01*
X-5063997Y-662998D01*
X-999997Y-662998D01*
X-999997Y-916998D01*
X-1190497Y-916998D01*
D26*
X-5063997Y-916998D02*
G01*
X-1190497Y-916998D01*
D10*
X-5063997Y-3202998D02*
G01*
X-5063997Y-2948998D01*
X-2015997Y-3202998D02*
G01*
X-2015997Y-2948998D01*
X-2015997Y-3202998D02*
G01*
X-5063997Y-3202998D01*
X-2015997Y-2948998D02*
G01*
X-5063997Y-2948998D01*
X-4667204Y-1725998D02*
G01*
X-4743404Y-1725998D01*
X-4006804Y-1725998D02*
G01*
X-3930604Y-1725998D01*
X-4654511Y-1611698D02*
G01*
X-4006811Y-1611698D01*
X-4006811Y-1840298D01*
X-4654511Y-1840298D01*
X-4654511Y-1611698D01*
X-4667204Y-2175997D02*
G01*
X-4743404Y-2175997D01*
X-4006804Y-2175997D02*
G01*
X-3930604Y-2175997D01*
X-4654511Y-2061697D02*
G01*
X-4006811Y-2061697D01*
X-4006811Y-2290297D01*
X-4654511Y-2290297D01*
X-4654511Y-2061697D01*
X-1746793Y-1170998D02*
G01*
X-1670593Y-1170998D01*
X-2407193Y-1170998D02*
G01*
X-2483393Y-1170998D01*
X-1759485Y-1285298D02*
G01*
X-2407185Y-1285298D01*
X-2407185Y-1056698D01*
X-1759485Y-1056698D01*
X-1759485Y-1285298D01*
X-3757203Y-1170998D02*
G01*
X-3833403Y-1170998D01*
X-3096803Y-1170998D02*
G01*
X-3020603Y-1170998D01*
X-3744511Y-1056698D02*
G01*
X-3096811Y-1056698D01*
X-3096811Y-1285298D01*
X-3744511Y-1285298D01*
X-3744511Y-1056698D01*
X-4006794Y-2625999D02*
G01*
X-3930594Y-2625999D01*
X-4667194Y-2625999D02*
G01*
X-4743394Y-2625999D01*
X-4019486Y-2740299D02*
G01*
X-4667186Y-2740299D01*
X-4667186Y-2511699D01*
X-4019486Y-2511699D01*
X-4019486Y-2740299D01*
X-1347091Y-1559897D02*
G01*
X-1347091Y-2620098D01*
X-1826900Y-2620098D01*
X-1826900Y-1559897D01*
X-1347599Y-1559897D01*
X-1347091Y-1559897D01*
X-1397005Y-2619994D02*
G01*
X-1397005Y-1560001D01*
X-856998Y-1529999D02*
G01*
X-856998Y-2049998D01*
X-856998Y-2049998D02*
G01*
X-1136997Y-2049998D01*
X-1136997Y-1529999D02*
G01*
X-1136997Y-2049998D01*
X-856998Y-1529999D02*
G01*
X-1136997Y-1529999D01*
X-856998Y-1625925D02*
G01*
X-1136997Y-1625925D01*
D27*
G75*
G01*
X-1873380Y-1813138D02*
G03*
X-1873380Y-1813392I-19999J-127D01*
D10*
G75*
G01
X-2419579Y-3438456D02*
G03X-2419579Y-3438456I-35916J0D01*
G75*
G01
X-4119677Y-3438406D02*
G03X-4119677Y-3438406I-35916J0D01*
G75*
G01
X-2062480Y-441612D02*
G03X-2062480Y-441612I-35916J0D01*
M02*
