M48
METRIC,LZ,000.000
;FILE_FORMAT=3:3
;TYPE=PLATED
;Layer: Drill PTH
;EasyEDA v6.4.20.6, 2021-08-25T14:01:31+02:00
;e866269f8e5e4e6dbd67b5624e2cb2fc,10
;Gerber Generator version 0.2
;Holesize 1 = 0.889 mm
T01C0.889
;Holesize 2 = 0.915 mm
T02C0.915
;Holesize 3 = 1.000 mm
T03C1.000
;Holesize 4 = 1.101 mm
T04C1.101
;Holesize 5 = 1.400 mm
T05C1.400
%
G05
G90
T01
X-011160Y-028760
X-013700Y-028760
X-039210Y-003400
X-036670Y-003400
X-034130Y-003400
X-011270Y-007900
X-013810Y-007900
X-016350Y-007900
X-018890Y-007900
X-021430Y-007900
X-023970Y-007900
X-026510Y-007900
X-029050Y-007900
X-031590Y-007900
X-034130Y-007900
X-036670Y-007900
X-039210Y-007900
X-041750Y-007900
X-044290Y-007900
X-046830Y-007900
X-049370Y-007900
X-021430Y-030760
X-023970Y-030760
X-026510Y-030760
X-029050Y-030760
X-031590Y-030760
X-034130Y-030760
X-036670Y-030760
X-039210Y-030760
X-041750Y-030760
X-044290Y-030760
X-046830Y-030760
X-049370Y-030760
T02
X-048620Y-017260
X-038120Y-017260
X-048620Y-021760
X-038120Y-021760
X-015520Y-011710
X-026020Y-011710
X-039520Y-011710
X-029020Y-011710
X-038120Y-026260
X-048620Y-026260
T03
X-021269Y-035401
X-023269Y-035401
X-038270Y-035400
X-040270Y-035400
X-036270Y-035400
X-034270Y-035400
X-032270Y-035400
X-030270Y-035400
X-002200Y-026754
X-002200Y-022754
X-002200Y-024754
X-002600Y-020604G85X-001800Y-020604
X-002600Y-028904G85X-001800Y-028904
X-024270Y-003400
X-022270Y-003400
X-046068Y-012472
X-048608Y-012472
X-009970Y-013300
X-009970Y-022500
T04
X-003200Y-016754
X-003200Y-012254
T05
X-005740Y-010904
X-005740Y-018104
X-016270Y-018360
X-016270Y-023440
X-016270Y-020900
M30
