G04 Layer: BottomSilkLayer*
G04 EasyEDA v6.4.20.6, 2021-08-25T14:01:31+02:00*
G04 e866269f8e5e4e6dbd67b5624e2cb2fc,10*
G04 Gerber Generator version 0.2*
G04 Scale: 100 percent, Rotated: No, Reflected: No *
G04 Dimensions in millimeters *
G04 leading zeros omitted , absolute positions ,4 integer and 5 decimal *
%FSLAX45Y45*%
%MOMM*%

%ADD27C,0.4000*%

%LPD*%
D27*
X-2095500Y-1691518D02*
G01*
X-2095500Y-2025609D01*
X-2095500Y-1691518D02*
G01*
X-2302316Y-1691518D01*
X-2095500Y-1850608D02*
G01*
X-2222771Y-1850608D01*
X-2407318Y-1691518D02*
G01*
X-2407318Y-2025609D01*
X-2703228Y-1802881D02*
G01*
X-2703228Y-2025609D01*
X-2703228Y-1850608D02*
G01*
X-2671409Y-1818789D01*
X-2639590Y-1802881D01*
X-2591864Y-1802881D01*
X-2560045Y-1818789D01*
X-2528227Y-1850608D01*
X-2512319Y-1898337D01*
X-2512319Y-1930153D01*
X-2528227Y-1977882D01*
X-2560045Y-2009698D01*
X-2591864Y-2025609D01*
X-2639590Y-2025609D01*
X-2671409Y-2009698D01*
X-2703228Y-1977882D01*
X-2808226Y-1802881D02*
G01*
X-2808226Y-1961972D01*
X-2824137Y-2009698D01*
X-2855955Y-2025609D01*
X-2903682Y-2025609D01*
X-2935500Y-2009698D01*
X-2983227Y-1961972D01*
X-2983227Y-1802881D02*
G01*
X-2983227Y-2025609D01*
X-3088228Y-1802881D02*
G01*
X-3088228Y-2025609D01*
X-3088228Y-1898337D02*
G01*
X-3104136Y-1850608D01*
X-3135955Y-1818789D01*
X-3167773Y-1802881D01*
X-3215500Y-1802881D01*
X-3511410Y-1802881D02*
G01*
X-3511410Y-2025609D01*
X-3511410Y-1850608D02*
G01*
X-3479591Y-1818789D01*
X-3447773Y-1802881D01*
X-3400046Y-1802881D01*
X-3368227Y-1818789D01*
X-3336409Y-1850608D01*
X-3320498Y-1898337D01*
X-3320498Y-1930153D01*
X-3336409Y-1977882D01*
X-3368227Y-2009698D01*
X-3400046Y-2025609D01*
X-3447773Y-2025609D01*
X-3479591Y-2009698D01*
X-3511410Y-1977882D01*
X-2057400Y-2224572D02*
G01*
X-2057400Y-2510937D01*
X-2057400Y-2224572D02*
G01*
X-2180127Y-2224572D01*
X-2221036Y-2238209D01*
X-2234671Y-2251844D01*
X-2248308Y-2279119D01*
X-2248308Y-2320028D01*
X-2234671Y-2347300D01*
X-2221036Y-2360937D01*
X-2180127Y-2374572D01*
X-2057400Y-2374572D01*
X-2542854Y-2292753D02*
G01*
X-2529217Y-2265481D01*
X-2501945Y-2238209D01*
X-2474673Y-2224572D01*
X-2420127Y-2224572D01*
X-2392855Y-2238209D01*
X-2365580Y-2265481D01*
X-2351946Y-2292753D01*
X-2338308Y-2333663D01*
X-2338308Y-2401844D01*
X-2351946Y-2442753D01*
X-2365580Y-2470028D01*
X-2392855Y-2497300D01*
X-2420127Y-2510937D01*
X-2474673Y-2510937D01*
X-2501945Y-2497300D01*
X-2529217Y-2470028D01*
X-2542854Y-2442753D01*
X-2632854Y-2224572D02*
G01*
X-2632854Y-2510937D01*
X-2632854Y-2224572D02*
G01*
X-2755582Y-2224572D01*
X-2796491Y-2238209D01*
X-2810126Y-2251844D01*
X-2823763Y-2279119D01*
X-2823763Y-2306391D01*
X-2810126Y-2333663D01*
X-2796491Y-2347300D01*
X-2755582Y-2360937D01*
X-2632854Y-2360937D02*
G01*
X-2755582Y-2360937D01*
X-2796491Y-2374572D01*
X-2810126Y-2388209D01*
X-2823763Y-2415481D01*
X-2823763Y-2456390D01*
X-2810126Y-2483662D01*
X-2796491Y-2497300D01*
X-2755582Y-2510937D01*
X-2632854Y-2510937D01*
X-3123763Y-2279119D02*
G01*
X-3151035Y-2265481D01*
X-3191944Y-2224572D01*
X-3191944Y-2510937D01*
X-3295581Y-2442753D02*
G01*
X-3281946Y-2456390D01*
X-3295581Y-2470028D01*
X-3309218Y-2456390D01*
X-3295581Y-2442753D01*
X-3481036Y-2224572D02*
G01*
X-3440127Y-2238209D01*
X-3412855Y-2279119D01*
X-3399218Y-2347300D01*
X-3399218Y-2388209D01*
X-3412855Y-2456390D01*
X-3440127Y-2497300D01*
X-3481036Y-2510937D01*
X-3508308Y-2510937D01*
X-3549218Y-2497300D01*
X-3576490Y-2456390D01*
X-3590127Y-2388209D01*
X-3590127Y-2347300D01*
X-3576490Y-2279119D01*
X-3549218Y-2238209D01*
X-3508308Y-2224572D01*
X-3481036Y-2224572D01*
M02*
