G04 Layer: TopSolderMaskLayer*
G04 EasyEDA v6.4.20.6, 2021-08-25T14:01:31+02:00*
G04 e866269f8e5e4e6dbd67b5624e2cb2fc,10*
G04 Gerber Generator version 0.2*
G04 Scale: 100 percent, Rotated: No, Reflected: No *
G04 Dimensions in millimeters *
G04 leading zeros omitted , absolute positions ,4 integer and 5 decimal *
%FSLAX45Y45*%
%MOMM*%

%ADD30C,1.7015*%
%ADD31C,2.1016*%
%ADD32C,1.7016*%
%ADD34C,1.6764*%
%ADD35C,1.8016*%
%ADD36C,1.6256*%
%ADD38C,1.9016*%

%LPD*%
D30*
X-219986Y-2675389D02*
G01*
X-219991Y-2675389D01*
X-219986Y-2275390D02*
G01*
X-219991Y-2275390D01*
X-219986Y-2475390D02*
G01*
X-219991Y-2475390D01*
D31*
X-269989Y-2060379D02*
G01*
X-169989Y-2060379D01*
X-269989Y-2890400D02*
G01*
X-169989Y-2890400D01*
X-1601995Y-2343995D02*
G01*
X-1651995Y-2343995D01*
X-1601995Y-2089995D02*
G01*
X-1651995Y-2089995D01*
D32*
G01*
X-2126894Y-3540056D03*
G01*
X-2326893Y-3540056D03*
G36*
X-1199895Y-2959920D02*
G01*
X-1199895Y-2792280D01*
X-1032256Y-2792280D01*
X-1032256Y-2959920D01*
G37*
D34*
G01*
X-1369999Y-2875998D03*
D32*
G01*
X-3826992Y-3540005D03*
G01*
X-4026992Y-3540005D03*
G01*
X-3626993Y-3540005D03*
G01*
X-3426993Y-3540005D03*
G01*
X-3226993Y-3540005D03*
G01*
X-3026994Y-3540005D03*
G01*
X-2426995Y-340012D03*
G01*
X-2226995Y-340012D03*
D34*
G01*
X-3920997Y-340012D03*
G01*
X-3666997Y-340012D03*
G36*
X-3496818Y-423730D02*
G01*
X-3496818Y-256090D01*
X-3329177Y-256090D01*
X-3329177Y-423730D01*
G37*
D32*
G01*
X-4606797Y-1247198D03*
G01*
X-4860797Y-1247198D03*
D35*
G01*
X-319989Y-1675391D03*
G01*
X-319989Y-1225405D03*
D31*
G01*
X-573989Y-1090404D03*
G01*
X-573989Y-1810392D03*
G36*
X-1210818Y-873818D02*
G01*
X-1210818Y-706178D01*
X-1043177Y-706178D01*
X-1043177Y-873818D01*
G37*
D34*
G01*
X-1380997Y-789998D03*
G01*
X-1634997Y-789998D03*
G01*
X-1888997Y-789998D03*
G01*
X-2142997Y-789998D03*
G01*
X-2396997Y-789998D03*
G01*
X-2650997Y-789998D03*
G01*
X-2904997Y-789998D03*
G01*
X-3158997Y-789998D03*
G01*
X-3412997Y-789998D03*
G01*
X-3666997Y-789998D03*
G01*
X-3920997Y-789998D03*
G01*
X-4174997Y-789998D03*
G01*
X-4428997Y-789998D03*
G01*
X-4682997Y-789998D03*
G01*
X-4936997Y-789998D03*
G36*
X-2226818Y-3159818D02*
G01*
X-2226818Y-2992178D01*
X-2059177Y-2992178D01*
X-2059177Y-3159818D01*
G37*
G01*
X-2396997Y-3075998D03*
G01*
X-2650997Y-3075998D03*
G01*
X-2904997Y-3075998D03*
G01*
X-3158997Y-3075998D03*
G01*
X-3412997Y-3075998D03*
G01*
X-3666997Y-3075998D03*
G01*
X-3920997Y-3075998D03*
G01*
X-4174997Y-3075998D03*
G01*
X-4428997Y-3075998D03*
G01*
X-4682997Y-3075998D03*
G01*
X-4936997Y-3075998D03*
D36*
G01*
X-4861991Y-1725988D03*
G01*
X-3811981Y-1725988D03*
G01*
X-4861991Y-2176000D03*
G01*
X-3811981Y-2176000D03*
G01*
X-1551990Y-1170998D03*
G01*
X-2602001Y-1170998D03*
G01*
X-3952011Y-1170998D03*
G01*
X-2902000Y-1170998D03*
G01*
X-3811981Y-2626012D03*
G01*
X-4861991Y-2626012D03*
G36*
X-1757171Y-1941126D02*
G01*
X-1757171Y-1730814D01*
X-1497076Y-1730814D01*
X-1497076Y-1941126D01*
G37*
D38*
G01*
X-997000Y-1330002D03*
G01*
X-997000Y-2249990D03*
M02*
